<?xml version="1.0" encoding="UTF-8" standalone="no"?>
<!-- Created with Inkscape (http://www.inkscape.org/) -->

<svg
   xmlns:dc="http://purl.org/dc/elements/1.1/"
   xmlns:cc="http://creativecommons.org/ns#"
   xmlns:rdf="http://www.w3.org/1999/02/22-rdf-syntax-ns#"
   xmlns:svg="http://www.w3.org/2000/svg"
   xmlns="http://www.w3.org/2000/svg"
   xmlns:sodipodi="http://sodipodi.sourceforge.net/DTD/sodipodi-0.dtd"
   xmlns:inkscape="http://www.inkscape.org/namespaces/inkscape"
   width="119.78083mm"
   height="198.59584mm"
   viewBox="0 0 119.78083 198.59585"
   version="1.1"
   preserveAspectRatio="none"
   id="svg8"
   inkscape:version="0.92.1 r15371"
   sodipodi:docname="overworld.svg">
  <defs
     id="defs2" />
  <sodipodi:namedview
     id="base"
     pagecolor="#ffffff"
     bordercolor="#666666"
     borderopacity="1.0"
     inkscape:pageopacity="0.0"
     inkscape:pageshadow="2"
     inkscape:zoom="0.7"
     inkscape:cx="372.54573"
     inkscape:cy="376.30354"
     inkscape:document-units="mm"
     inkscape:current-layer="layer1"
     showgrid="false"
     inkscape:window-width="1145"
     inkscape:window-height="1009"
     inkscape:window-x="531"
     inkscape:window-y="18"
     inkscape:window-maximized="0"
     fit-margin-top="0"
     fit-margin-left="0"
     fit-margin-right="0"
     fit-margin-bottom="0" />
  <metadata
     id="metadata5">
    <rdf:RDF>
      <cc:Work
         rdf:about="">
        <dc:format>image/svg+xml</dc:format>
        <dc:type
           rdf:resource="http://purl.org/dc/dcmitype/StillImage" />
        <dc:title></dc:title>
      </cc:Work>
    </rdf:RDF>
  </metadata>
  <g
     inkscape:label="Layer 1"
     inkscape:groupmode="layer"
     id="layer1"
     transform="translate(-20.787257,-131.4284)">
    <rect
       style="opacity:0.29600004;fill:#00ff00;fill-opacity:0.38500001;stroke:none;stroke-width:0.94804269;stroke-miterlimit:4;stroke-dasharray:none;stroke-opacity:1"
       id="rect4524"
       width="119.59354"
       height="198.40855"
       x="21.258884"
       y="131.90018" />
    <path
       style="fill:#b5b5b5;fill-opacity:0.46000001;stroke-width:0.26669481"
       d="m 89.283514,330.51229 c -0.60673,-0.46036 -0.69487,-0.44795 3.8766,-0.54559 4.02542,-0.086 7.161616,-0.87581 11.050216,-2.78292 3.71625,-1.82256 6.0785,-3.75095 7.94467,-6.48548 3.40464,-4.98885 4.32699,-9.19106 3.12452,-14.23529 -0.38049,-1.59614 -0.41538,-2.0081 -0.13786,-1.62778 0.99412,1.36235 1.58223,5.15081 1.20643,7.77154 -0.63737,4.44479 -1.97995,7.1732 -4.94845,10.05637 -3.60884,3.50509 -6.25216,5.10577 -11.18337,6.77216 -4.003646,1.35295 -9.814636,1.9254 -10.932756,1.07699 z m -2.24762,-0.40917 c 0,-0.14692 0.11275,-0.26712 0.25055,-0.26712 0.13781,0 0.32461,0.1202 0.41512,0.26712 0.0905,0.14691 -0.0222,0.26712 -0.25055,0.26712 -0.22832,0 -0.41512,-0.12021 -0.41512,-0.26712 z m -7.05617,-1.82648 c -4.79391,-1.90227 -8.56704,-4.97715 -10.53904,-8.58872 -0.64727,-1.18542 -1.44645,-2.45845 -1.77597,-2.82894 -0.70566,-0.79343 -0.73446,-1.00223 -0.19969,-1.44746 0.54831,-0.45651 1.19396,0.0951 1.21078,1.03441 0.0337,1.8851 3.19872,5.98644 6.51105,8.43738 2.0468,1.5145 4.9127,3.1766 6.46132,3.74729 0.54685,0.20152 0.81452,0.37072 0.59485,0.37602 -0.21967,0.005 -1.23816,-0.3232 -2.2633,-0.72998 z m -49.5263,-5.06915 c -0.63753,-0.12528 -1.46467,-0.81802 -1.464,-1.22615 2.6e-4,-0.16088 0.56942,-0.65165 1.26478,-1.09061 0.69537,-0.43896 1.92644,-1.4006 2.7357,-2.13696 0.93311,-0.84905 2.39427,-1.76723 3.99406,-2.50981 1.38746,-0.64403 2.70239,-1.25777 2.92206,-1.36386 0.33905,-0.16374 0.38601,0.0849 0.31071,1.64567 -0.0828,1.71622 -0.15934,1.91642 -1.15018,3.00865 -0.58383,0.64356 -1.41836,1.31838 -1.85453,1.49964 -0.72222,0.3001 -0.85857,0.26653 -1.52708,-0.37599 -0.54472,-0.52354 -1.01021,-0.7055 -1.80472,-0.7055 -1.27731,0 -2.07027,0.71162 -2.56517,2.30204 -0.26114,0.83919 -0.43903,1.03592 -0.86163,0.95288 z m -9.18224,-10.26683 c 0.002,-3.12196 0.0921,-5.80552 0.1997,-5.96346 0.21874,-0.32109 3.40561,-2.5176 3.65274,-2.5176 0.0868,0 1.20181,-0.70167 2.47761,-1.55927 4.00135,-2.68972 7.79338,-4.67614 8.84328,-4.6325 0.51257,0.0213 1.32137,0.0494 1.79733,0.0624 1.63665,0.0446 0.80171,1.60251 -1.33135,2.48404 -0.54918,0.22696 -0.99852,0.59759 -0.99852,0.82362 0,0.45982 1.7168,1.639 2.77371,1.90512 0.56673,0.14268 0.68781,0.32923 0.68781,1.05975 0,1.13653 -1.06611,2.05615 -2.24912,1.94004 -0.66496,-0.0652 -0.82834,-0.21352 -0.89724,-0.81436 -0.10719,-0.93452 -0.81147,-0.96998 -1.82887,-0.0921 -0.71337,0.61556 -0.72516,0.66406 -0.28112,1.15629 1.06975,1.18584 -0.0297,3.27646 -1.72307,3.27646 -0.83529,0 -1.64606,0.34461 -2.43204,1.03373 -0.47483,0.41632 -0.47211,0.43541 0.0809,0.5667 0.50824,0.12065 0.41426,0.26368 -0.83996,1.27842 -2.09081,1.69159 -7.50571,5.65507 -7.73614,5.66253 -0.10983,0.004 -0.19787,-2.54787 -0.19563,-5.66984 z m 43.93054,1.65272 c -0.88046,-0.17395 -1.46301,-0.51914 -2.19673,-1.30167 -0.89423,-0.9537 -0.99851,-1.2125 -0.99839,-2.47767 1.3e-4,-1.34706 0.0651,-1.47822 1.39793,-2.82223 0.76878,-0.77524 2.19954,-1.91717 3.17946,-2.53764 8.75795,-5.54538 7.80027,-4.77464 9.8267,-7.90851 2.86486,-4.43053 3.12316,-4.7358 6.23174,-7.36457 2.76087,-2.33475 3.06651,-2.51733 5.3254,-3.18134 1.31804,-0.38743 2.54621,-0.7044 2.72927,-0.70436 0.49662,9e-5 0.39137,0.84472 -0.1997,1.60278 -0.61551,0.7894 -0.67242,2.06252 -0.12466,2.78904 0.21501,0.28517 0.39094,0.84832 0.39094,1.25142 0,1.04055 0.47704,2.16637 0.86323,2.03724 0.18008,-0.0603 0.57795,-0.86775 0.88416,-1.7945 0.3062,-0.92677 0.75266,-1.82873 0.99211,-2.00439 0.39381,-0.28887 0.34543,-0.50538 -0.50655,-2.26721 -0.51806,-1.07131 -0.84299,-2.04263 -0.72206,-2.15847 0.47064,-0.45087 8.481226,-1.21022 10.762926,-1.02025 1.23085,0.10248 4.12686,0.19588 6.43558,0.20756 3.8627,0.0196 4.73386,-0.0752 10.91709,-1.18735 9.42014,-1.69436 9.55778,-1.72502 9.46396,-2.10869 -0.045,-0.1841 -0.70211,-1.04562 -1.46022,-1.9145 -0.7581,-0.86888 -2.17517,-2.54142 -3.14904,-3.71674 -5.07733,-6.12765 -11.71241,-10.60366 -23.83038,-16.07596 -1.684156,-0.76054 -4.799516,-2.1588 -6.923026,-3.10725 -2.12351,-0.94843 -6.07762,-2.72077 -8.78693,-3.93853 l -4.926,-2.21409 -3.12352,-3.07285 c -3.46901,-3.41272 -4.10926,-4.52279 -5.26445,-9.12756 -0.8442,-3.36507 -1.88046,-6.47859 -2.32777,-6.99395 -0.61961,-0.71389 -4.5248,-3.24308 -6.71244,-4.34731 -2.20431,-1.11264 0.22952,-0.7639 -22.37924,-3.2067 -3.58799,-0.38766 -6.95281,-0.80034 -7.47737,-0.91706 -0.52458,-0.11671 -2.20208,-0.15861 -3.72779,-0.0931 -2.20253,0.0946 -3.24032,0.28526 -5.03734,0.92564 -1.24481,0.4436 -2.5329,0.97648 -2.8624,1.18417 -0.59387,0.37433 -0.59911,0.36499 -0.59911,-1.06796 0,-1.43247 0.008,-1.44713 0.9052,-1.61594 1.46447,-0.27562 1.62011,-0.72116 0.67108,-1.92118 -0.45229,-0.57189 -0.99198,-1.13592 -1.19931,-1.25341 -0.2692,-0.15255 -0.37697,-0.75074 -0.37697,-2.09244 0,-1.03335 0.0899,-1.83768 0.19971,-1.78738 2.65337,1.21504 5.01491,2.69506 6.36744,3.9906 l 1.64114,1.57199 h 2.51627 c 1.38395,0 3.16169,0.12372 3.95054,0.27493 1.22503,0.23483 12.73454,1.58208 17.27735,2.02241 2.88328,0.27946 4.39977,0.40978 4.79287,0.41184 0.21967,0.001 1.27044,0.1124 2.33503,0.24721 l 1.93563,0.24512 5.65308,-2.49501 c 3.10919,-1.37225 7.27067,-3.17854 9.24773,-4.01398 3.56741,-1.50745 6.39355,-3.22828 5.95387,-3.62528 -0.12598,-0.11376 -0.82817,-0.35072 -1.56042,-0.52658 -0.73224,-0.17585 -2.40184,-0.70306 -3.71021,-1.17158 -1.8822,-0.67399 -2.66049,-1.12179 -3.72778,-2.14488 -0.74192,-0.71116 -1.73835,-1.45631 -2.2143,-1.65586 -1.16446,-0.48824 -1.08921,-0.84328 0.25575,-1.2066 1.57102,-0.42438 2.59567,-0.0516 5.18517,1.88631 1.56584,1.17185 2.77304,1.82385 4.38431,2.36793 3.70763,1.25196 3.41715,1.26632 5.32151,-0.26319 2.14752,-1.72479 4.00394,-2.64336 6.99495,-3.46116 1.73171,-0.47347 2.40567,-0.77971 2.49923,-1.1356 0.0949,-0.36116 0.29046,-0.44642 0.75531,-0.32938 0.80396,0.20242 2.49559,-0.49961 2.49559,-1.0357 0,-0.22669 -0.68546,-0.77697 -1.53105,-1.22912 -2.78965,-1.49163 -4.7586,-2.78824 -6.1776,-4.06812 -1.59745,-1.44082 -2.04876,-1.54906 -2.41621,-0.57947 -0.69653,1.83783 -0.0176,4.09203 1.36494,4.53225 0.30013,0.0956 0.49117,0.22841 0.42455,0.29523 -0.0666,0.0668 -1.06417,-0.32777 -2.21679,-0.87689 -1.17207,-0.55837 -1.90466,-1.04057 -1.66226,-1.0941 0.29641,-0.0654 0.48795,-0.50802 0.6059,-1.40001 0.13211,-0.9991 0.35874,-1.46152 0.96852,-1.97626 0.79937,-0.67477 0.85372,-1.01672 0.54855,-3.45126 -0.0455,-0.36243 -1.82213,-0.98807 -2.80593,-0.98807 -0.84541,0 -1.02243,0.14318 -1.89895,1.53593 -0.92392,1.46806 -1.85612,2.45218 -2.33492,2.46493 -0.12269,0.003 0.30642,-0.74534 0.95357,-1.66357 1.70032,-2.41253 2.47742,-3.90265 2.18246,-4.18494 -0.13764,-0.13172 -1.14892,-0.49807 -2.24727,-0.8141 -1.09837,-0.31603 -3.25516,-0.97168 -4.79287,-1.45699 -1.53772,-0.4853 -3.57468,-1.09792 -4.5266,-1.36136 -0.95191,-0.26345 -3.85384,-1.18167 -6.44871,-2.04048 -2.59488,-0.85883 -4.85621,-1.5615 -5.02518,-1.5615 -0.66827,0 0.32993,0.74932 1.2218,0.91717 0.50177,0.0944 1.60586,0.4831 2.45353,0.86371 1.59362,0.71556 2.52865,1.01024 6.60035,2.0801 1.31803,0.34631 2.69598,0.74882 3.06211,0.89445 0.36612,0.14562 1.56433,0.53746 2.6627,0.87076 1.09836,0.33329 2.35649,0.75372 2.79583,0.93428 0.43936,0.18057 1.19633,0.41241 1.68219,0.51522 1.18506,0.25076 1.28624,0.68772 0.45207,1.95226 -0.84495,1.28089 -1.71345,1.55694 -5.66061,1.79916 -3.15117,0.19337 -4.32539,-0.0809 -5.11601,-1.19469 -0.41725,-0.58786 -0.8182,-0.78513 -1.88397,-0.92696 -1.17824,-0.1568 -1.42442,-0.30003 -1.89715,-1.10382 -0.41234,-0.70111 -0.7215,-0.92364 -1.28314,-0.92364 -0.84666,0 -1.24685,-0.38435 -1.37871,-1.32411 -0.0703,-0.50121 -0.37523,-0.76079 -1.29029,-1.09848 -1.15715,-0.42701 -3.83031,-1.92599 -4.926,-2.76226 -0.46019,-0.35124 -0.47828,-0.44343 -0.13314,-0.67859 0.21967,-0.14968 0.72185,-0.27399 1.11593,-0.27624 0.39409,-0.002 0.79058,-0.12429 0.8811,-0.2712 0.0967,-0.15699 -0.18955,-0.26712 -0.69434,-0.26712 -0.47241,0 -0.78007,-0.0791 -0.68371,-0.17577 0.24444,-0.24522 -0.33686,-0.89272 -0.80145,-0.89272 -0.21684,0 -0.35038,0.20319 -0.30723,0.46746 0.042,0.25712 -0.23224,0.7747 -0.60937,1.15021 -0.5757,0.57322 -0.78812,0.63868 -1.32436,0.40807 -0.35128,-0.15106 -0.72421,-0.3982 -0.82875,-0.54918 -0.12163,-0.17566 -0.34968,-0.11444 -0.63332,0.17001 -0.41344,0.41466 -0.37259,0.48069 0.60793,0.9825 1.56652,0.80173 3.74143,2.60967 3.95626,3.28874 0.10386,0.32825 0.41605,0.78383 0.69377,1.0124 0.48661,0.40052 0.47091,0.44264 -0.43274,1.16075 -0.83759,0.66561 -1.04438,0.71811 -1.93722,0.49186 -1.86164,-0.47175 -3.43976,-0.59006 -4.16759,-0.31246 -1.17988,0.45001 -0.5505,0.8993 1.03048,0.73561 1.82493,-0.18896 2.11794,0.0188 1.93681,1.37355 l -0.14498,1.08439 1.41207,0.41181 c 0.77665,0.22649 1.63327,0.41365 1.90364,0.4159 0.27035,0.002 0.663,0.11293 0.87254,0.24595 0.27875,0.17696 0.10013,0.28942 -0.66568,0.41908 -0.57566,0.0975 -1.40612,0.28 -1.84547,0.40563 -0.43935,0.12563 -1.51774,0.23821 -2.39643,0.25018 -0.8787,0.0119 -1.83461,0.0494 -2.12428,0.083 -0.39967,0.0464 -0.61992,-0.20532 -0.91354,-1.04434 l -0.38688,-1.10556 -3.08052,-0.94935 c -2.71229,-0.83587 -3.27148,-0.92543 -4.67814,-0.74922 -1.89823,0.2378 -2.86042,0.70197 -2.74312,1.3233 0.0592,0.31326 0.40688,0.47534 1.14772,0.53495 0.58457,0.0471 1.30251,0.30368 1.5954,0.57033 0.2929,0.26664 0.79465,0.56443 1.11501,0.66176 0.51796,0.15736 0.58247,0.36139 0.58247,1.84231 v 1.66537 l -2.31323,0.72896 -2.31322,0.72896 -1.47452,-0.77252 -1.47451,-0.77253 -0.72793,0.62815 c -0.66244,0.57161 -0.9657,0.62646 -3.37026,0.60944 -1.63121,-0.0115 -2.8124,-0.14346 -3.08679,-0.34474 -0.35391,-0.25962 -0.87811,-0.23424 -2.57259,0.12451 -2.28936,0.48471 -4.20157,0.2819 -4.20157,-0.44561 0,-0.2025 -0.25138,-0.62036 -0.5586,-0.92857 -0.39032,-0.39156 -0.51707,-0.77381 -0.42074,-1.26882 0.0934,-0.48007 -0.0316,-0.89122 -0.38795,-1.27549 l -0.52582,-0.56705 1.14659,-0.67408 c 0.63061,-0.37074 1.37732,-0.92988 1.65936,-1.24252 0.50656,-0.56153 0.50626,-0.57729 -0.0248,-1.29651 -0.29568,-0.40044 -0.94595,-1.00575 -1.44507,-1.34513 -0.4991,-0.33939 -0.94516,-0.72333 -0.99125,-0.85319 -0.0461,-0.12987 0.43321,-0.37481 1.06508,-0.54431 0.63189,-0.16951 1.2887,-0.42307 1.45959,-0.56347 0.28166,-0.23143 1.84465,-0.44855 4.34902,-0.60416 0.51257,-0.0318 1.11168,-0.13509 1.33135,-0.22944 0.47244,-0.2029 1.54844,-0.24031 4.79287,-0.16662 0.91957,0.0209 1.16726,0.0793 0.66568,0.15681 -0.43935,0.0679 -0.91265,0.23451 -1.05177,0.37013 -0.26198,0.25535 2.31017,0.38131 5.33709,0.26136 0.9682,-0.0384 2.14098,0.11224 2.90793,0.37346 1.03731,0.3533 1.53596,0.38385 2.58426,0.15832 1.9786,-0.4257 3.5576,-0.35324 4.09683,0.18799 0.91496,0.91834 6.39489,0.71714 5.82141,-0.21374 -0.0859,-0.13954 -1.07785,-0.25535 -2.20419,-0.25736 -2.53531,-0.004 -3.15807,-0.16406 -3.33824,-0.8552 -0.12767,-0.48978 -0.26551,-0.52175 -1.42253,-0.32977 -1.81598,0.30129 -2.43771,0.24077 -3.02747,-0.29466 -0.7181,-0.65194 -0.65102,-1.18792 0.14868,-1.18792 0.42767,0 0.66567,-0.1501 0.66567,-0.4198 0,-0.28027 -0.19912,-0.39399 -0.5991,-0.34214 -0.32951,0.0427 -0.75416,-0.0192 -0.94366,-0.13747 -0.20137,-0.12573 -0.61241,-0.0391 -0.98915,0.20858 -0.84682,0.55663 -1.38201,0.56989 -0.9296,0.023 0.28015,-0.33863 0.22463,-0.40068 -0.35844,-0.40068 -0.48422,0 -0.64698,0.11227 -0.54589,0.37655 0.17709,0.46294 -0.55345,0.7197 -2.31917,0.81513 -1.07847,0.0582 -1.25491,0.007 -1.00653,-0.29339 0.23816,-0.28788 0.18293,-0.36406 -0.26396,-0.36406 -0.31083,0 -0.56514,0.16745 -0.56514,0.37211 0,0.20465 -0.18954,0.44506 -0.42119,0.53424 -0.61471,0.23664 -0.96389,0.19832 -0.78841,-0.0865 0.33241,-0.53956 -0.46253,-0.57562 -1.02401,-0.0464 -0.5937,0.55953 -1.39817,0.78758 -1.10614,0.31357 0.33239,-0.53957 -0.46254,-0.57562 -1.02402,-0.0464 -0.69263,0.65276 -1.28015,0.74248 -1.05793,0.16155 0.22545,-0.5894 -0.50293,-0.49587 -1.04014,0.13356 -0.25079,0.29383 -0.72676,0.53239 -1.05769,0.53015 -0.47486,-0.003 -0.51914,-0.0564 -0.21003,-0.2526 0.21543,-0.13668 0.31047,-0.32999 0.21119,-0.42959 -0.26698,-0.26782 -1.06295,0.10458 -0.87514,0.40944 0.30617,0.49697 -3.31253,0.98185 -3.63804,0.48747 -0.1782,-0.27063 -0.28164,-0.2509 -0.48401,0.0923 -0.14156,0.24009 -0.77233,0.514 -1.40172,0.60868 -2.46423,0.37071 -3.65782,1.86503 -2.12488,2.66027 1.00788,0.52286 1.75759,1.40648 1.58225,1.86486 -0.0802,0.20977 -0.84365,0.70551 -1.69648,1.10164 -0.85283,0.39614 -1.75866,0.83001 -2.01296,0.96416 -0.66922,0.35303 -0.73585,0.3155 -0.73585,-0.4145 0,-0.38502 0.22112,-0.77712 0.53254,-0.94432 0.69018,-0.37055 0.68301,-1.23602 -0.0134,-1.60989 -0.46769,-0.2511 -0.53773,-0.52033 -0.48885,-1.87923 0.0525,-1.45956 0.30794,-2.03727 0.56231,-1.27174 0.13927,0.41915 0.73872,0.0292 0.73872,-0.48053 0,-0.26326 -0.20648,-0.3729 -0.59912,-0.31813 -0.56083,0.0782 -0.60424,-0.0257 -0.67947,-1.62839 -0.0555,-1.18025 0.0273,-1.78805 0.26626,-1.95696 0.26552,-0.18766 0.27087,-0.276 0.0228,-0.37747 -0.25114,-0.10274 -0.32678,-6.18476 -0.33692,-27.09234 l -0.0131,-26.95986 10.58833,0.004 c 7.64604,0.003 10.47735,0.0842 10.18893,0.29231 -0.31853,0.22987 -0.29157,0.24733 0.13313,0.0862 0.2929,-0.11109 0.99653,-0.25666 1.56361,-0.32348 0.76414,-0.0901 1.0013,-0.0319 0.9161,0.22448 -0.12589,0.37886 -0.35937,0.52677 -1.94716,1.23358 -1.48399,0.66061 -3.19495,2.51124 -3.70207,4.00429 -2.23211,6.57178 4.65261,12.33785 10.5298,8.81888 4.26866,-2.55588 4.76856,-8.52814 0.98572,-11.77644 -0.96355,-0.82739 -1.89363,-1.23196 -4.4185,-1.92199 -2.05965,-0.56287 3.1797,-0.6341 47.06329,-0.63976 l 47.396126,-0.006 v 25.62321 c 0,20.23739 -0.0699,25.65598 -0.33284,25.77903 -0.26626,0.12466 -0.26626,0.18699 0,0.31164 0.47022,0.22014 0.41613,0.73477 -0.0581,0.55223 -0.21498,-0.0828 -0.45846,-0.0408 -0.54106,0.0933 -0.0826,0.13409 -0.33126,0.17409 -0.55256,0.089 -0.34876,-0.13426 -0.34009,-0.22396 0.0651,-0.67309 0.45724,-0.50686 0.43902,-0.51636 -0.83307,-0.43446 -0.73893,0.0476 -1.34785,0.22793 -1.41011,0.41764 -0.0603,0.18364 0.0801,0.3339 0.31203,0.3339 0.23188,0 0.42426,0.21036 0.42752,0.46746 0.0115,0.90507 0.88065,1.67903 1.93007,1.71861 l 0.99298,0.0374 v 3.00634 c 0,2.15513 -0.0942,3.04448 -0.33284,3.14107 -0.26626,0.10778 -0.26626,0.13895 0,0.15582 0.18764,0.0119 0.33284,0.37069 0.33284,0.82245 0,0.61866 -0.11935,0.80136 -0.52351,0.80136 -0.54344,0 -2.43157,-0.79221 -2.68106,-1.1249 -0.22722,-0.303 -2.05507,-1.01206 -2.60891,-1.01206 -0.27786,0 -0.79094,0.21923 -1.14021,0.48718 -0.56353,0.43234 -1.09964,0.47791 -4.76221,0.40481 -4.86112,-0.097 -6.07324,-0.25051 -5.60893,-0.71029 0.17511,-0.1734 0.81979,-0.31526 1.43261,-0.31526 0.61281,0 1.11422,-0.11532 1.11422,-0.25627 0,-0.14521 -1.21145,-0.27064 -2.79585,-0.28944 -3.03078,-0.036 -4.55942,-0.30188 -3.95278,-0.68757 0.19697,-0.12523 0.62178,-0.22954 0.94401,-0.23179 0.32223,-0.002 0.6817,-0.15435 0.79881,-0.33799 0.37203,-0.58338 2.59428,-1.55146 4.49742,-1.95922 2.9356,-0.62896 7.90407,-1.48694 8.62963,-1.4902 0.36612,-0.002 1.18378,-0.17441 1.81704,-0.38391 0.63325,-0.2095 1.23807,-0.32713 1.34406,-0.26142 0.10599,0.0657 0.36335,0.0136 0.57194,-0.11565 1.10261,-0.68363 -1.11197,-0.44701 -7.50246,0.80159 -3.85799,0.7538 -9.11141,1.77998 -11.67427,2.28039 -2.56284,0.50042 -5.67821,1.089 -6.92302,1.30797 -1.24482,0.21897 -4.53991,0.80924 -7.32243,1.31171 -2.78253,0.50247 -5.609886,0.99313 -6.283016,1.09036 -1.39733,0.20184 -3.47984,1.82179 -2.98289,2.32035 0.15087,0.15134 1.6384,0.56038 3.30562,0.90898 1.66721,0.34859 3.870056,0.82574 4.895196,1.06035 1.02514,0.23459 2.70264,0.60925 3.72779,0.83257 1.02514,0.22331 2.03687,0.57721 2.2483,0.78644 0.33458,0.33111 0.3041,0.46618 -0.23522,1.04209 -1.29781,1.38585 -2.60588,2.05109 -4.98089,2.53312 -3.63716,0.73819 -3.53373,0.90535 2.16899,3.50568 0.2929,0.13355 1.97041,0.83078 3.72779,1.5494 3.01581,1.2332 7.02299,3.13695 22.97643,10.91577 3.70368,1.80589 6.96882,3.28344 7.25587,3.28344 0.46976,0 0.52193,0.19104 0.52193,1.91124 0,1.8021 -0.0266,1.88726 -0.46597,1.49138 -0.79415,-0.71559 -31.56729,-16.26663 -35.03753,-17.70603 -1.63426,-0.67787 -1.90639,-0.72015 -2.6627,-0.41372 -0.46333,0.18772 -2.16045,0.76482 -3.771386,1.28244 -3.52297,1.13198 -5.64462,2.17015 -7.06404,3.45661 -1.71733,1.55646 -1.52497,1.798 1.9555,2.45538 2.65348,0.50118 11.267166,2.85575 12.896946,3.5254 0.91046,0.3741 0.73893,1.00846 -0.32695,1.20906 -1.37184,0.25818 -2.58751,0.0477 -6.130106,-1.06143 -3.59756,-1.12633 -8.68578,-2.42655 -10.57891,-2.70327 -1.16085,-0.1697 -1.37972,-0.10402 -2.79584,0.83899 -0.84502,0.56272 -4.23238,2.24105 -7.52748,3.72964 -9.34578,4.22204 -11.71722,5.3921 -11.69893,5.77218 0.009,0.19387 1.05776,0.85645 2.32986,1.47239 1.2721,0.61594 3.17472,1.73114 4.22802,2.47822 2.36187,1.67518 3.08264,2.86299 4.6245,7.62092 0.61892,1.90991 1.41958,4.07357 1.77922,4.80816 0.66791,1.36416 3.3985,4.40747 3.9546,4.40747 0.16936,0 1.25151,-0.43515 2.40477,-0.967 3.58483,-1.65323 14.713896,-6.22918 18.206186,-7.48587 1.83061,-0.65873 5.0658,-2.01989 7.1893,-3.02479 8.81408,-4.17108 9.32536,-4.37664 10.78951,-4.338 2.33935,0.0618 3.65443,0.91706 2.76013,1.79518 -0.87865,0.86275 -11.15944,5.87076 -15.54666,7.57314 -2.63608,1.02287 -5.63162,2.21817 -6.65676,2.6562 -1.02514,0.43804 -3.06211,1.29972 -4.526596,1.91485 -4.78952,2.01177 -9.71887,4.49462 -9.71887,4.89528 0,0.43393 0.31198,0.57705 11.183356,5.13013 12.09344,5.06488 19.30163,8.81902 25.84914,13.46261 l 1.21913,0.86462 5.43763,-1.72293 c 2.9907,-0.94761 5.94688,-1.78621 6.56928,-1.86356 l 1.13165,-0.14062 v 3.04646 c 0,2.71881 -0.0501,3.04773 -0.46597,3.05829 -0.82319,0.0209 -7.09239,2.30091 -7.19764,2.61769 -0.0559,0.16814 1.17508,1.6746 2.73546,3.34768 1.56037,1.67307 3.02636,3.32657 3.25776,3.67443 0.23138,0.34787 0.70399,0.94177 1.05022,1.31979 l 0.62951,0.68731 -0.0712,6.79206 -0.0712,6.79205 -0.53255,-0.83686 c -1.83261,-2.87985 -4.48443,-6.56073 -4.81945,-6.6897 -0.21717,-0.0836 -2.69647,0.28386 -5.50954,0.81658 -12.08062,2.28774 -12.42766,2.33245 -18.42478,2.37317 -3.07731,0.0209 -7.15279,-0.003 -9.05662,-0.0535 -4.005656,-0.10595 -6.523626,0.28536 -6.523626,1.01381 0,0.25236 0.23964,0.93037 0.53254,1.5067 0.56918,1.12 0.66384,1.91621 0.29686,2.49715 -0.33934,0.53718 -1.18479,0.2591 -1.35027,-0.44413 -0.18449,-0.78401 -0.70664,-0.75912 -0.58963,0.0281 0.0482,0.32455 0.0974,1.0108 0.10921,1.52501 0.0799,3.47504 0.55631,8.93155 0.89463,10.24666 0.54548,2.12047 0.42528,2.90089 -0.49663,3.22424 -1.21467,0.42603 -1.50344,-0.14309 -1.8015,-3.55059 -0.3554,-4.06283 -1.13757,-5.77533 -2.22452,-4.87036 -0.50284,0.41866 -1.14617,2.98103 -1.34266,5.34786 -0.18678,2.24997 -0.43376,2.69106 -1.50683,2.69106 -1.21594,0 -1.3802,-0.6935 -0.67041,-2.8304 0.44411,-1.33706 0.70215,-3.0562 0.93836,-6.25167 0.17919,-2.42411 0.43707,-4.61621 0.57308,-4.87132 0.31376,-0.58853 0.3113,-0.7382 -0.0122,-0.7382 -0.1427,0 -0.44533,0.36061 -0.67251,0.80136 -0.24737,0.47987 -0.62399,0.80136 -0.93879,0.80136 -0.60916,0 -0.69572,0.59439 -0.15242,1.04673 1.02885,0.85659 0.63987,2.70265 -0.44659,2.11935 -0.46999,-0.25233 -0.63037,-0.18357 -1.10346,0.47307 -2.69386,3.73908 -2.91673,3.94623 -8.79837,8.17752 -3.52294,2.53443 -6.32405,4.3569 -7.05387,4.58943 -1.72606,0.54993 -3.16002,0.67809 -4.5389,0.40567 z M 102.74252,201.04481 c 2.47391,-1.07859 3.1324,-2.42499 1.40124,-2.86507 -10.876396,-2.76491 -10.557956,-2.70576 -10.823976,-2.01034 -0.38851,1.01567 2.07848,3.83543 4.51964,5.16593 1.22802,0.66929 2.933346,0.56825 4.903096,-0.29052 z m -66.720796,-6.40942 c 0.52093,-0.23811 0.61354,-0.40589 0.4221,-0.76475 -0.34794,-0.6522 -2.08955,-0.88774 -2.85309,-0.38585 -0.79881,0.52507 -0.7669,0.81856 0.12451,1.14517 0.99414,0.36425 1.51877,0.36548 2.30648,0.005 z m 55.91839,-0.39134 c 0.23166,-0.0892 0.42119,-0.38968 0.42119,-0.66781 0,-0.43994 -0.20762,-0.50566 -1.59762,-0.50566 -1.39696,0 -1.59763,0.0643 -1.59763,0.51198 0,0.2816 0.14978,0.57261 0.33284,0.64672 0.48172,0.195 1.94997,0.20388 2.44122,0.0147 z m 3.93186,-1.86079 c 1.07133,-0.23111 2.30733,-0.46923 2.74668,-0.52916 0.43935,-0.0599 1.397916,-0.23657 2.130156,-0.39255 1.76597,-0.37617 2.47882,-0.50178 3.59466,-0.63338 2.38902,-0.28178 9.27384,-1.62958 9.50409,-1.86055 0.3539,-0.35504 -6.12846,0.17808 -7.90647,0.65025 -1.09837,0.29166 -2.53623,0.58731 -3.19524,0.65698 -0.65903,0.0697 -1.43786,0.23614 -1.73076,0.36993 -0.69974,0.31961 -2.721696,0.83698 -3.727786,0.95384 -0.43934,0.0511 -1.15828,0.16864 -1.59762,0.26134 -0.43935,0.0927 -1.09837,0.2072 -1.46449,0.25446 -0.36612,0.0473 -0.76261,0.10142 -0.88109,0.12037 -0.27912,0.0446 0.0406,0.56868 0.34685,0.56868 0.12824,0 1.10969,-0.1891 2.18102,-0.42021 z m -3.2444,-0.0715 c 0,-0.12352 -1.10836,-0.34912 -2.463,-0.50133 -1.35465,-0.15223 -3.36167,-0.52896 -4.46004,-0.83717 -1.09836,-0.30822 -2.98555,-0.8277 -4.19375,-1.15441 -1.22894,-0.33231 -2.19673,-0.73772 -2.19673,-0.9202 0,-0.17941 0.60025,-0.5262 1.33388,-0.77065 1.3125,-0.43734 1.90169,-1.02129 1.67342,-1.65855 -0.19168,-0.53509 -1.73474,-1.34383 -2.94074,-1.54129 -0.93377,-0.15288 -1.13165,-0.11111 -1.13165,0.23888 0,0.28439 0.24128,0.42449 0.73225,0.42516 0.40273,5.3e-4 1.13873,0.2496 1.63554,0.55344 0.78987,0.48308 0.85472,0.60117 0.51646,0.94051 -0.21276,0.21344 -0.9787,0.61308 -1.70211,0.8881 -1.72021,0.65399 -1.83996,1.22265 -0.33152,1.57431 1.23838,0.28869 2.16931,0.55924 6.87123,1.99691 2.96279,0.90591 6.65676,1.33114 6.65676,0.76629 z m 37.205736,-0.73819 c -0.0885,-0.0888 -0.31814,-0.0982 -0.51035,-0.0211 -0.21242,0.0853 -0.14932,0.14856 0.16087,0.16138 0.28069,0.0116 0.43796,-0.0516 0.34948,-0.1403 z M 26.459374,189.59802 c -0.0905,-0.14692 -0.49405,-0.26712 -0.89676,-0.26712 -0.40272,0 -0.9437,-0.15514 -1.2022,-0.34476 -0.40037,-0.29369 -0.42244,-0.44944 -0.14903,-1.05145 0.39884,-0.87814 0.17015,-1.54211 -0.53113,-1.54211 -0.37416,0 -0.48491,0.12452 -0.37238,0.41869 0.0881,0.23029 0.0105,0.69925 -0.17244,1.04215 -0.5012,0.93948 -0.22657,1.31282 1.21536,1.65217 1.68984,0.39772 2.3135,0.42505 2.10858,0.0925 z m 89.986086,-1.04334 c -0.14203,-0.13586 -0.72002,-0.14934 -1.31805,-0.0307 l -1.06507,0.21126 1.31804,0.0307 c 0.79512,0.0186 1.21767,-0.0653 1.06508,-0.21126 z m 1.40568,-0.18653 c -0.0885,-0.0888 -0.31813,-0.0982 -0.51035,-0.0211 -0.21241,0.0853 -0.14932,0.14856 0.16087,0.16138 0.2807,0.0116 0.43796,-0.0516 0.34948,-0.1403 z m -42.705506,-0.38749 c -0.25086,-0.25166 -3.21283,-1.08766 -3.99401,-1.12729 -0.1691,-0.008 -0.24487,-0.1792 -0.16838,-0.37918 0.26946,-0.70443 1.04242,-0.88321 2.5832,-0.59747 0.82104,0.15225 1.59781,0.21174 1.72614,0.13217 0.12835,-0.0796 0.38141,0.0343 0.56239,0.25307 0.18097,0.21875 0.55402,0.39773 0.82898,0.39773 0.71243,0 0.61813,0.39512 -0.22687,0.95055 -0.94998,0.62443 -0.43949,0.77895 0.8239,0.24939 1.28601,-0.53904 1.50913,-1.13199 0.67955,-1.80589 -0.35393,-0.28751 -0.64351,-0.65945 -0.64351,-0.82654 0,-0.45081 -1.17647,-0.53792 -1.34416,-0.0995 -0.11431,0.29885 -0.39881,0.32507 -1.39673,0.12872 -1.96488,-0.38662 -3.39394,-0.38623 -3.31676,8e-4 0.0786,0.39451 -1.08212,0.45077 -1.76261,0.0854 -0.28079,-0.15076 -0.61426,-0.15236 -0.84787,-0.004 -0.33266,0.21113 -0.33071,0.24925 0.0144,0.28013 0.21967,0.0197 0.5288,0.0209 0.68695,0.003 0.15815,-0.0181 0.27797,0.22329 0.26627,0.53643 -0.0178,0.47579 0.26316,0.65296 1.70948,1.07811 0.95192,0.27982 2.03031,0.61241 2.39643,0.73911 0.99598,0.34464 1.76433,0.34757 1.42327,0.005 z m 44.175546,0.10485 c -0.18306,-0.0741 -0.48262,-0.0741 -0.66568,0 -0.18306,0.0741 -0.0333,0.13473 0.33284,0.13473 0.36612,0 0.5159,-0.0607 0.33284,-0.13473 z m 1.19266,-0.2516 c -0.0885,-0.0887 -0.31813,-0.0982 -0.51035,-0.0211 -0.21241,0.0853 -0.14932,0.14857 0.16088,0.16139 0.28069,0.0116 0.43795,-0.0515 0.34947,-0.1403 z m -77.450706,-0.34355 c 0.22662,-0.14406 0.2604,-0.29218 0.0906,-0.39746 -0.36512,-0.22637 -1.15209,0.096 -0.96716,0.39615 0.1828,0.29672 0.41128,0.29706 0.87655,0.001 z m 60.443976,-0.58294 c 1.22416,-0.14305 2.44487,-0.37773 2.71269,-0.52152 0.53513,-0.2873 0.60935,-1.42043 0.0797,-1.21653 -0.17936,0.0691 -1.3031,0.20559 -2.49719,0.30344 -1.19409,0.0978 -2.48943,0.27439 -2.87854,0.39232 -0.67972,0.20599 -0.67091,0.21604 0.22448,0.25614 0.77188,0.0345 0.84049,0.0812 0.3994,0.27131 -0.29289,0.12627 -0.91488,0.23802 -1.3822,0.24835 -0.896766,0.0198 -1.381336,0.40725 -0.816186,0.65257 0.18398,0.0799 0.693966,0.0842 1.133306,0.0101 0.43935,-0.0746 1.8004,-0.25264 3.02457,-0.39569 z m 20.07439,0.37673 c -0.18306,-0.0741 -0.48261,-0.0741 -0.66568,0 -0.18306,0.0741 -0.0333,0.13473 0.33284,0.13473 0.36613,0 0.5159,-0.0607 0.33284,-0.13473 z m -28.024956,-1.41888 c -0.51256,-0.10932 -1.29141,-0.29132 -1.73075,-0.40445 -0.54722,-0.14091 -0.71495,-0.11887 -0.53255,0.07 0.34325,0.35538 1.09595,0.53261 2.2633,0.53295 l 0.93195,2.7e-4 z m 35.075576,0.0988 c -0.0885,-0.0887 -0.31813,-0.0982 -0.51035,-0.0211 -0.21242,0.0853 -0.14932,0.14856 0.16087,0.16138 0.2807,0.0116 0.43796,-0.0516 0.34948,-0.1403 z m -63.033966,-0.34672 c -0.21967,-0.12361 -0.8787,-0.30206 -1.46449,-0.39656 -1.03522,-0.167 -1.04642,-0.16073 -0.3994,0.2234 0.36612,0.21738 1.02514,0.39582 1.46448,0.39656 0.57068,10e-4 0.68475,-0.0628 0.39941,-0.2234 z m 64.365326,0.0796 c -0.0885,-0.0887 -0.31815,-0.0982 -0.51036,-0.0211 -0.21241,0.0853 -0.14932,0.14857 0.16087,0.16139 0.28069,0.0116 0.43796,-0.0516 0.34949,-0.1403 z m 1.33134,-0.26712 c -0.0885,-0.0887 -0.31813,-0.0982 -0.51035,-0.0211 -0.21241,0.0853 -0.14932,0.14858 0.16088,0.16139 0.28069,0.0116 0.43795,-0.0515 0.34947,-0.1403 z m -89.195026,-0.9231 c 1.74977,-0.75485 1.43966,-1.08659 -0.93195,-0.99693 -1.90975,0.0722 -2.06994,0.12283 -2.14868,0.67904 -0.0782,0.55212 -0.22439,0.60102 -1.79733,0.60102 -1.01395,0 -1.71224,0.11392 -1.71224,0.27935 0,0.45741 5.26836,0.008 6.5902,-0.56248 z m 90.731636,-0.11756 c 0,-0.66053 -0.11954,-0.81532 -0.68026,-0.88084 -0.63528,-0.0742 -0.67285,-0.0159 -0.56828,0.88266 0.0934,0.80256 0.20623,0.94867 0.68025,0.88085 0.43591,-0.0624 0.56829,-0.26798 0.56829,-0.88267 z m -70.428516,0.42488 c -0.21968,-0.12468 -0.69896,-0.30014 -1.06508,-0.38992 -0.55488,-0.13605 -0.53272,-0.0989 0.13313,0.22277 0.85333,0.41233 1.59984,0.54622 0.93195,0.16715 z m 22.38939,-0.97255 c -1.6251,-0.3536 -2.44157,-0.85532 -3.81703,-2.34563 -0.25629,-0.27768 -0.46598,-0.37277 -0.46598,-0.21132 0,0.16145 -0.4833,0.37108 -1.074,0.46584 -1.306,0.2095 -1.14956,0.50505 0.21997,0.41556 0.7782,-0.0509 1.31888,0.1635 2.55416,1.01259 1.34876,0.92707 1.75668,1.07412 2.92898,1.05584 l 1.36198,-0.0212 z m -28.12752,-0.0694 c -0.45895,-0.39259 -1.66123,-0.81945 -1.83031,-0.64984 -0.0913,0.0916 0.16636,0.3142 0.57255,0.49468 0.85694,0.38078 1.63349,0.47658 1.25776,0.15516 z m -33.29196,-1.92058 c 1.24592,-0.0902 1.88316,-0.25403 1.96575,-0.50519 0.19971,-0.60733 -3.69712,-0.22402 -4.82373,0.47449 -1.26982,0.7873 -1.21164,1.48496 0.0609,0.73002 0.62338,-0.36986 1.59193,-0.612 2.79711,-0.69932 z m 34.43138,1.17423 c -0.0885,-0.0888 -0.31815,-0.0982 -0.51035,-0.0211 -0.21242,0.0853 -0.14933,0.14857 0.16086,0.16138 0.28069,0.0116 0.43796,-0.0515 0.34949,-0.14029 z m -25.12296,-1.31134 c 0.53045,-0.22234 0.96446,-0.46275 0.96446,-0.53424 0,-0.0715 -1.01848,-0.12997 -2.2633,-0.12997 -2.08578,0 -2.2633,0.0419 -2.2633,0.53424 0,0.46123 0.17752,0.53424 1.29884,0.53424 0.71436,0 1.73284,-0.18193 2.2633,-0.40427 z m 22.97303,-0.57831 c -0.0765,-0.0766 -0.27258,-0.0565 -0.43588,0.0447 -0.21313,0.13213 -0.19934,0.30219 0.0489,0.60258 0.31151,0.37704 0.35468,0.37262 0.43587,-0.0447 0.0495,-0.25476 0.0276,-0.52592 -0.0488,-0.60259 z m -14.28672,0.22042 c 0,-0.44268 -0.32447,-0.5145 -3.0677,-0.67902 -2.56553,-0.15388 -3.16484,-0.11534 -3.66122,0.23543 -0.55206,0.39014 -0.37964,0.41518 2.46858,0.35862 1.9619,-0.039 3.25346,0.0514 3.59466,0.25148 0.68867,0.40384 0.66568,0.40959 0.66568,-0.16651 z m 43.32065,-0.93697 c 0.4104,-0.41171 -0.649,-0.6969 -2.60347,-0.70086 -2.08144,-0.004 -2.5457,0.13526 -2.12757,0.63913 0.27115,0.32675 4.413,0.3808 4.73104,0.0617 z m 14.460016,0.0964 c -0.21967,-0.14242 -0.57914,-0.25894 -0.79881,-0.25894 -0.355026,0 -0.355026,0.0288 0,0.25894 0.21967,0.14241 0.57914,0.25894 0.79881,0.25894 0.35502,0 0.35502,-0.0288 0,-0.25894 z m -24.097466,-0.26712 c -0.0905,-0.14692 -0.27732,-0.26712 -0.41512,-0.26712 -0.13781,0 -0.25056,0.1202 -0.25056,0.26712 0,0.14691 0.18681,0.26712 0.41512,0.26712 0.22832,0 0.34107,-0.12021 0.25056,-0.26712 z m 17.61046,-0.0813 c 0.46774,-0.46913 -0.70414,-0.71206 -3.45375,-0.71597 -2.15605,-0.003 -2.8572,0.0784 -2.7761,0.32246 0.0597,0.17958 0.37649,0.38994 0.70404,0.46746 0.93954,0.22233 5.28845,0.16413 5.52581,-0.0739 z m 4.31725,0.11151 c 0.25523,-0.16225 0.11978,-0.26409 -0.46597,-0.35032 -0.81545,-0.12007 -1.13864,0.14896 -0.49295,0.41033 0.48605,0.19675 0.56256,0.19197 0.95892,-0.06 z m -18.59933,-1.21648 c 0,-0.0648 -0.11982,-0.19208 -0.26627,-0.28289 -0.14645,-0.0908 -0.26627,-0.0377 -0.26627,0.1178 0,0.15559 0.11982,0.28289 0.26627,0.28289 0.14645,0 0.26627,-0.053 0.26627,-0.1178 z m -34.97652,-11.76901 c 0.21967,-0.22037 0.80646,-0.40068 1.30397,-0.40068 0.69467,0 0.86901,0.093 0.75131,0.40068 -0.11209,0.29301 0.0332,0.40068 0.5409,0.40068 0.38179,0 0.69416,-0.12021 0.69416,-0.26712 0,-0.14692 -0.12211,-0.26712 -0.27134,-0.26712 -0.14965,0 -0.20288,-0.27368 -0.11868,-0.6102 0.10163,-0.40621 -0.0381,-0.8304 -0.41822,-1.26882 -0.47996,-0.55373 -0.50441,-0.6722 -0.15351,-0.74385 0.37646,-0.0768 0.37515,-0.1499 -0.0134,-0.74479 l -0.43079,-0.65956 -0.50561,0.54445 c -0.96612,1.04032 -1.90826,0.43263 -1.68496,-1.0868 l 0.1332,-0.90639 -0.27355,0.87036 c -0.33077,1.05236 0.0419,1.93441 0.81726,1.93441 0.68103,0 0.6668,0.40301 -0.0316,0.89372 -0.3051,0.21439 -0.65195,0.82222 -0.77077,1.35075 -0.23818,1.05945 -0.16312,1.1569 0.4316,0.56028 z m 3.55662,-3.15438 c 0,-0.1923 -0.18635,-0.58296 -0.41411,-0.86814 -0.39692,-0.49702 -0.40192,-0.49337 -0.12081,0.088 0.1613,0.33358 0.22074,0.72425 0.1321,0.86813 -0.0887,0.14388 -0.0343,0.26161 0.12083,0.26161 0.15509,0 0.28199,-0.15734 0.28199,-0.34963 z m -1.04388,-3.95861 c -0.35983,-1.20485 -1.07263,-1.55767 -1.58474,-0.78441 -0.22831,0.34473 -0.65272,0.5516 -1.13165,0.5516 -0.63497,0 -0.76633,0.11177 -0.76633,0.65203 0,0.35863 0.10864,0.71941 0.24144,0.80174 0.13279,0.0824 0.17872,-0.0909 0.10207,-0.38492 -0.1094,-0.41968 -0.008,-0.5346 0.46984,-0.5346 0.33506,0 0.83205,-0.20233 1.10443,-0.44961 0.45975,-0.4174 0.52662,-0.4181 0.93356,-0.0101 0.35109,0.3522 0.38027,0.56759 0.14663,1.08202 -0.23416,0.51557 -0.20408,0.73089 0.15249,1.09148 0.41566,0.42035 0.44998,0.40149 0.5344,-0.29368 0.0496,-0.40859 -0.0414,-1.18339 -0.20214,-1.72178 z m 11.61519,-2.09183 c 1.60886,-0.98411 2.15985,-3.31703 1.24181,-5.25783 -0.81762,-1.72849 -0.54905,-1.69811 -15.00837,-1.69811 -14.52153,0 -14.329,-0.0223 -15.06526,1.74545 -0.83687,2.00932 -0.27963,4.24506 1.29869,5.21049 0.81454,0.49823 1.42687,0.52143 13.76657,0.52143 12.3397,0 12.95202,-0.0232 13.76656,-0.52143 z m -23.9767,-1.56779 c -0.62023,-0.68753 -0.59149,-2.76435 0.0463,-3.34335 1.14488,-1.03941 2.51465,-0.11619 2.51465,1.69489 0,1.8299 -1.51658,2.80612 -2.56091,1.64846 z m 1.67407,-0.42778 c 0.46196,-0.55842 0.24277,-2.31106 -0.33302,-2.6628 -0.38454,-0.2349 -0.5589,-0.18969 -0.86538,0.22435 -1.02147,1.37998 0.13214,3.7273 1.1984,2.43845 z m 3.7432,0.66689 c 0,-0.13715 0.32951,-0.28741 0.73224,-0.3339 0.58022,-0.0669 0.73224,-0.22261 0.73224,-0.74969 0,-0.52855 -0.16408,-0.69519 -0.79881,-0.81126 -0.65868,-0.12046 -0.78657,-0.26149 -0.72908,-0.80399 0.11942,-1.12659 0.28765,-1.3257 1.12014,-1.3257 0.93409,0 1.09691,0.4558 0.20806,0.58245 -0.78602,0.11198 -0.76482,0.68665 0.0405,1.09591 1.03414,0.5256 1.25631,1.10098 0.73392,1.90078 -0.32053,0.49076 -0.68656,0.69478 -1.24646,0.69478 -0.43597,0 -0.79267,-0.11222 -0.79267,-0.24938 z m 3.59835,-0.18574 c -0.26843,-0.26929 -0.358,-0.60015 -0.23503,-0.86814 0.1093,-0.23816 0.18282,-0.84954 0.16339,-1.35862 -0.0194,-0.50908 0.0925,-1.08005 0.24861,-1.26883 0.32399,-0.39162 1.24304,-0.44556 1.77971,-0.10446 0.44103,0.28031 0.63196,3.21612 0.24071,3.70127 -0.38208,0.47378 -1.68399,0.41381 -2.19739,-0.10122 z m 1.69905,-0.19882 c 0.44361,-0.53623 0.0654,-1.27927 -0.60227,-1.18324 -0.65382,0.094 -0.91974,0.97967 -0.39444,1.31363 0.49356,0.31378 0.64572,0.29387 0.99671,-0.13039 z m 0.028,-2.58431 c 0,-0.70075 -0.51306,-0.92257 -1.0012,-0.43288 -0.33615,0.33722 -0.35331,0.49651 -0.0881,0.81709 0.41507,0.50172 1.08931,0.26391 1.08931,-0.38421 z m 3.70991,2.79597 c -0.31083,-0.37572 -0.24512,-0.40266 0.59589,-0.24439 1.09539,0.20615 1.54964,-0.36617 0.84872,-1.06933 -0.32925,-0.33029 -0.34819,-0.49606 -0.0921,-0.80569 0.52585,-0.63562 0.10761,-1.28384 -0.69756,-1.08111 -0.49915,0.12568 -0.65805,0.0782 -0.5761,-0.17201 0.14616,-0.44631 1.51319,-0.60941 1.89527,-0.22612 0.37075,0.37194 0.45048,3.24031 0.10248,3.68703 -0.36647,0.47045 -1.65989,0.4154 -2.07666,-0.0883 z m 4.36619,0.0883 c 0.098,-0.2571 0.24421,-0.62998 0.3248,-0.82862 0.083,-0.20464 -0.14779,-0.55462 -0.53255,-0.80752 -1.19145,-0.78317 -0.76089,-2.30388 0.6523,-2.30388 1.29545,0 1.71648,1.14926 0.95921,2.61832 -0.46732,0.90659 -1.68142,2.04971 -1.40376,1.3217 z m 0.97428,-2.20034 c 0.44243,-0.53479 0.14773,-1.20543 -0.52973,-1.20543 -0.30209,0 -0.61881,0.18183 -0.70382,0.40407 -0.153,0.4 0.31595,1.19865 0.70382,1.19865 0.11058,0 0.34896,-0.17878 0.52973,-0.39729 z m 35.65462,156.56596 c -0.77632,-0.38681 -0.95201,-1.28583 -0.36614,-1.87357 0.85872,-0.86145 2.52473,-0.27549 2.52473,0.88799 0,0.90755 -1.20812,1.45916 -2.15859,0.98558 z m -23.1371,-7.3888 c 0,-0.34387 2.11677,-2.66522 2.43035,-2.66522 0.53055,0 0.16535,0.8062 -0.83243,1.83763 -1.04633,1.0816 -1.59792,1.36728 -1.59792,0.82759 z m -27.00278,-1.61724 c -0.75339,-0.89821 -0.83581,-1.19277 -0.40794,-1.45805 0.92437,-0.57311 2.50709,1.08345 1.82403,1.90912 -0.44171,0.53392 -0.64394,0.46951 -1.41609,-0.45107 z m 54.53528,-2.26079 c -0.11418,-0.45638 -0.0204,-0.84407 0.28622,-1.18403 0.87738,-0.97259 1.60427,0.0804 0.92911,1.34592 -0.38733,0.72605 -1.01406,0.64257 -1.21533,-0.16189 z m -20.0895,-3.83891 c 0.50277,-0.94244 2.94154,-2.83544 2.94154,-2.28327 0,0.37599 -1.27937,1.81475 -2.02452,2.27676 -1.04911,0.65045 -1.26136,0.65196 -0.91702,0.006 z m -26.21503,-1.09205 c -0.0905,-0.14691 0.0222,-0.26711 0.25056,-0.26711 0.2283,0 0.41512,0.1202 0.41512,0.26711 0,0.14692 -0.11276,0.26713 -0.25056,0.26713 -0.1378,0 -0.32462,-0.12021 -0.41512,-0.26713 z m 52.055856,-2.06692 c -0.65903,-0.0571 -1.318036,-0.22944 -1.464486,-0.38306 -0.38374,-0.40252 2.982876,-0.14043 3.385606,0.26358 0.24323,0.24401 0.19654,0.30588 -0.20367,0.26989 -0.28558,-0.0256 -1.05843,-0.0934 -1.71745,-0.15041 z M 34.580644,271.31905 c -1.46079,-0.80731 -3.19524,-2.2847 -3.19524,-2.72168 0,-0.12677 0.10958,-0.16255 0.24352,-0.0795 0.13394,0.0831 0.28372,0.0362 0.33284,-0.10399 0.0491,-0.14025 0.64696,-0.29125 1.32853,-0.33557 0.68157,-0.0443 1.19165,-0.15789 1.13352,-0.25238 -0.17238,-0.28017 2.2166,-1.29736 3.047,-1.29736 0.42118,0 1.07046,0.24041 1.44282,0.53425 0.37236,0.29383 0.83785,0.53855 1.03442,0.54384 0.61519,0.0166 1.97165,1.28267 1.68329,1.5712 -0.54953,0.54982 -4.75982,2.96 -5.16274,2.9554 -0.23291,-0.003 -1.08249,-0.36906 -1.88796,-0.81421 z m 66.700736,-2.69469 c -0.2929,-0.16761 -0.54761,-0.31706 -0.56603,-0.33212 -0.0184,-0.015 -0.11442,-0.2917 -0.21332,-0.61475 -0.19045,-0.62199 0.5964,-1.68316 1.24804,-1.68316 0.48563,0 1.79461,1.28581 1.79461,1.76286 0,0.2231 -0.1063,0.33973 -0.23621,0.25918 -0.12991,-0.0806 -0.21978,0.0626 -0.1997,0.31813 0.0445,0.56613 -1.04312,0.73864 -1.82739,0.28986 z m -52.614076,-0.70687 c -0.67315,-0.39661 -1.4403,-0.9013 -1.70478,-1.12151 -0.44796,-0.37299 -0.40978,-0.41498 0.55823,-0.61381 0.57149,-0.11738 1.86193,-0.33158 2.86763,-0.47598 1.62313,-0.23305 1.86708,-0.20969 2.17156,0.20806 0.31133,0.42713 0.33643,0.40939 0.27171,-0.19212 -0.0392,-0.3645 -0.0196,-0.45236 0.0437,-0.19526 0.0632,0.2571 0.23518,0.46746 0.38207,0.46746 0.58525,0 -0.94991,1.49221 -2.12013,2.06083 -0.68535,0.33302 -1.24609,0.60053 -1.24609,0.59447 0,-0.006 -0.55076,-0.33552 -1.22389,-0.73214 z m 35.97217,-1.21329 c 0,-0.74427 0.14403,-0.9618 0.86539,-1.30713 1.2631,-0.60469 3.75658,-1.53969 4.10603,-1.53969 0.16576,0 0.56306,0.4449 0.88287,0.98867 0.52375,0.89053 0.53951,1.01947 0.15873,1.29879 -0.23251,0.17056 -1.19246,0.38921 -2.13322,0.4859 -0.94078,0.0967 -2.13483,0.35367 -2.65346,0.57106 -1.24591,0.52223 -1.22634,0.53018 -1.22634,-0.4976 z m 20.935986,0.70412 c -0.0918,-0.0921 -0.16689,-0.3711 -0.16689,-0.62003 0,-0.47854 -1.70968,-1.45982 -3.00695,-1.72586 -1.42193,-0.2916 -1.12747,-1.7393 0.35379,-1.7393 0.90527,0 5.40866,3.22356 4.77972,3.42137 -0.21769,0.0685 -0.71012,0.28351 -1.09429,0.47787 -0.38417,0.19436 -0.77358,0.27803 -0.86538,0.18595 z m 26.72642,-4.60366 c 0,-0.13824 0.11982,-0.32564 0.26627,-0.41645 0.42566,-0.2639 0.30795,-1.51098 -0.19971,-2.11593 -0.4655,-0.55471 -0.46537,-0.55476 0.13314,-0.0464 0.53066,0.45073 0.59911,0.45835 0.59911,0.0667 0,-0.57346 0.0369,-0.56764 1.6713,0.26317 l 1.38732,0.70526 -1.8403,0.89746 c -2.06256,1.00585 -2.01713,0.99131 -2.01713,0.64612 z m -6.65677,-2.37184 c -0.77472,-0.35219 -2.6627,-1.72443 -2.6627,-1.93534 0,-0.54135 1.10028,-0.48294 2.22738,0.11825 1.1501,0.61348 1.29343,0.63042 2.4299,0.2873 0.66424,-0.20055 1.29598,-0.36989 1.40389,-0.37635 0.1079,-0.006 0.19619,-0.12189 0.19619,-0.25657 0,-0.4808 0.39322,-0.62706 0.79237,-0.29473 0.43068,0.35856 0.57559,1.21061 0.16232,0.95437 -0.13394,-0.083 -0.28372,-0.0453 -0.33284,0.0837 -0.13362,0.35117 -2.79581,1.64127 -3.34228,1.61967 -0.26114,-0.0103 -0.65455,-0.10046 -0.87423,-0.20034 z m 3.46153,-1.20802 c 0.22035,-0.0736 0.094,-0.14286 -0.28195,-0.15449 -0.37474,-0.0116 -0.91394,0.15756 -1.19822,0.37592 -0.47993,0.36864 -0.45979,0.37967 0.28194,0.15449 0.43935,-0.13337 0.97855,-0.30254 1.19823,-0.37592 z m -86.271616,-1.21486 c -0.98302,-0.2727 -1.01944,-1.20832 -0.0625,-1.60595 1.53137,-0.63634 3.08268,0.81299 1.67763,1.56735 -0.56709,0.30446 -0.64961,0.30644 -1.61512,0.0386 z m 77.351556,-1.03893 -0.79881,-0.4541 0.73224,-0.0872 c 0.41788,-0.0498 0.73224,-0.2516 0.73224,-0.47013 0,-0.21061 0.23965,-0.40097 0.53254,-0.423 0.2929,-0.022 0.68232,-0.0521 0.86538,-0.0667 0.18306,-0.0146 0.29839,0.13705 0.2563,0.3372 -0.0421,0.20015 0.13763,0.52173 0.3994,0.71462 0.44168,0.32546 0.42197,0.37139 -0.27362,0.63779 -1.0096,0.38665 -1.5006,0.34883 -2.44567,-0.18841 z m 8.09746,-0.35543 c -0.44028,-0.29036 0.033,-0.73969 1.68132,-1.5961 l 0.99185,-0.51535 -0.67837,1.00372 c -0.75035,1.11024 -1.42386,1.48423 -1.9948,1.10773 z m -86.380956,-4.91384 c -0.14645,-0.0512 -0.95524,-0.28546 -1.79733,-0.52061 -0.84208,-0.23515 -1.53105,-0.54051 -1.53105,-0.67856 0,-0.13805 0.66898,-0.75771 1.48662,-1.377 l 1.48662,-1.12599 1.63576,0.33894 c 1.78995,0.37089 2.65809,0.74265 2.52991,1.08336 -0.0455,0.12096 -0.70829,0.71385 -1.47283,1.31752 -1.30627,1.03139 -1.68913,1.18901 -2.3377,0.96234 z m 64.987206,-1.70661 c -0.081,-0.13152 0.0257,-0.30572 0.23701,-0.38708 0.25635,-0.0987 0.33501,-0.0191 0.23624,0.23913 -0.17163,0.44871 -0.26916,0.4792 -0.47325,0.14795 z m 1.04958,-1.34043 c 0.0939,-0.38003 0.28174,-0.73103 0.41736,-0.78001 0.13562,-0.049 0.24658,-0.27404 0.24658,-0.50016 0,-0.34018 -0.0708,-0.35212 -0.41069,-0.0691 -0.33408,0.27814 -0.47067,0.27693 -0.73224,-0.006 -0.25545,-0.27679 -0.24366,-0.3038 0.0574,-0.13136 0.279,0.15983 0.26145,0.0489 -0.0665,-0.42093 -0.55128,-0.78957 -0.5671,-1.08342 -0.0476,-0.88342 0.21883,0.0842 0.35015,0.23073 0.29182,0.32552 -0.0584,0.0948 0.15204,0.19152 0.4675,0.21496 0.31546,0.0234 1.2139,0.33054 1.99655,0.68244 l 1.423,0.63982 -1.02414,0.67991 c -0.56328,0.37394 -1.42139,0.73839 -1.90692,0.80988 -0.83705,0.12324 -0.87394,0.0942 -0.712,-0.56098 z m -68.763926,-5.10598 c -0.36157,-0.14583 -0.93906,-0.94007 -1.46449,-2.01411 l -0.86752,-1.77332 0.97834,-0.85131 c 1.73628,-1.51084 2.15894,-1.64328 3.54693,-1.11151 1.01131,0.38746 1.32944,0.69028 1.88913,1.79832 0.37018,0.73283 0.63605,1.58758 0.59084,1.89943 -0.0452,0.31186 -0.60076,0.96306 -1.23455,1.44709 -1.18661,0.90623 -2.23519,1.09084 -3.43868,0.60541 z M 21.267124,210.0378 c 0,-0.7972 0.10445,-0.95283 0.73224,-1.09104 0.40274,-0.0887 1.63091,-0.46019 2.72927,-0.82561 4.15206,-1.38135 8.54549,-2.53702 13.18039,-3.46703 5.54601,-1.11284 6.45704,-1.24678 10.23164,-1.5043 0.76482,-0.0522 0.94773,-0.19168 1.13236,-0.86359 0.12111,-0.44075 0.1412,-1.16198 0.0447,-1.60272 -0.0966,-0.44075 -0.15035,-1.34228 -0.11952,-2.00341 0.0753,-1.61408 -0.33404,-2.07678 -2.52062,-2.84953 l -1.84547,-0.65219 2.39644,0.12538 c 2.37807,0.12442 4.64507,0.7115 5.16246,1.3369 0.14819,0.17914 0.41127,1.46257 0.58462,2.85207 0.17335,1.3895 0.44154,2.68617 0.596,2.88146 0.20131,0.25456 0.73778,0.31701 1.89487,0.22059 4.42012,-0.36836 9.85839,-0.47893 9.58512,-0.19488 -0.385,0.4002 -8.09366,1.11322 -13.20469,1.22139 -2.29271,0.0486 -4.38997,0.2071 -4.66058,0.35239 -0.27062,0.14529 -1.51013,0.33418 -2.75448,0.41976 -1.24435,0.0856 -3.02202,0.39772 -3.95037,0.69368 -0.92835,0.29596 -2.0233,0.5381 -2.43322,0.5381 -0.40991,0 -1.74723,0.28627 -2.97181,0.63616 -1.22459,0.3499 -2.70581,0.7194 -3.2916,0.82112 -0.58579,0.10173 -1.30473,0.33774 -1.59763,0.52445 -0.29289,0.18673 -2.23882,0.90863 -4.32428,1.60425 -2.08547,0.6956 -3.85991,1.37537 -3.94321,1.51058 -0.33002,0.5357 -0.65256,0.19762 -0.65256,-0.68398 z m 106.025076,0.64803 c -0.81729,-0.32882 -0.55111,-0.6844 0.67984,-0.90818 1.1177,-0.2032 3.92461,-0.85255 8.77201,-2.02931 1.78417,-0.43314 3.3718,-0.78751 3.52808,-0.78751 0.15627,0 0.28413,0.40437 0.28413,0.89861 0,0.86122 -0.0494,0.9054 -1.18652,1.06175 -0.65258,0.0898 -2.87914,0.5869 -4.9479,1.10479 -3.72782,0.93325 -5.94104,1.13807 -7.12964,0.65985 z m -13.76239,-6.63122 c -0.29289,-0.12989 -0.75379,-0.48301 -1.02423,-0.78469 -0.4856,-0.54175 -0.47901,-0.55183 0.53255,-0.81561 1.94259,-0.50655 4.22973,-0.83698 7.54785,-1.09044 2.89796,-0.22138 4.71967,-0.55369 8.78692,-1.60289 0.51257,-0.13223 1.85047,-0.32249 2.9731,-0.4228 1.72261,-0.15392 2.32513,-0.0887 3.86091,0.41751 1.00088,0.32994 2.17925,0.79387 2.61859,1.03098 l 0.79882,0.43108 -2.13017,0.13356 c -2.04799,0.1284 -2.13016,0.15885 -2.13016,0.78922 0,0.64647 -0.0318,0.65537 -2.2633,0.6334 -1.24481,-0.0122 -4.06063,-0.13492 -6.25735,-0.27262 -3.09692,-0.19411 -4.31098,-0.17139 -5.40497,0.10118 -0.77601,0.19335 -1.8544,0.35535 -2.39643,0.36003 -0.9243,0.008 -0.95341,0.0329 -0.46866,0.40068 0.28427,0.2157 0.46401,0.40752 0.3994,0.42627 -1.08687,0.31545 -4.90954,0.50166 -5.44287,0.26514 z m 15.10952,-0.0988 c 0.12831,-0.39086 1.11361,-0.58332 1.74399,-0.34065 0.37891,0.14586 0.38538,0.20316 0.0472,0.41771 -0.59477,0.37735 -1.92163,0.32026 -1.79119,-0.077 z m -78.277106,-0.11832 c 0.25909,-0.0677 0.61854,-0.0633 0.79882,0.0101 0.18027,0.0732 -0.0317,0.12858 -0.47104,0.12314 -0.43934,-0.005 -0.58685,-0.0653 -0.32778,-0.13303 z m 35.47548,-2.2218 c -0.43936,-0.29383 -1.19336,-0.78892 -1.67557,-1.10019 -0.48221,-0.31127 -0.81981,-0.62306 -0.75021,-0.69287 0.18333,-0.18392 2.73374,1.25177 3.26,1.83514 0.58613,0.64974 0.16869,0.62868 -0.83422,-0.0421 z m 54.186016,-0.53142 c 0,-0.14691 0.11983,-0.26711 0.26627,-0.26711 0.14645,0 0.26627,0.1202 0.26627,0.26711 0,0.14692 -0.11982,0.26713 -0.26627,0.26713 -0.14644,0 -0.26627,-0.12021 -0.26627,-0.26713 z m -84.953116,-1.02521 c -0.8034,-0.65263 -0.46796,-1.11174 0.81228,-1.11174 0.76384,0 1.14159,0.15369 1.44468,0.58779 0.31779,0.45516 0.33622,0.63507 0.0817,0.79727 -0.57583,0.36692 -1.71428,0.23386 -2.33863,-0.27332 z m 63.448146,-0.62329 c -0.36258,-0.14413 -0.31871,-0.18847 0.20334,-0.2055 0.36612,-0.0119 1.11501,-0.0962 1.66418,-0.18728 0.61446,-0.10189 0.99852,-0.0598 0.99852,0.1096 0,0.32778 -2.2056,0.5457 -2.86604,0.28318 z m -37.296546,-0.18825 c -0.28331,-0.18017 -0.26544,-0.26039 0.0884,-0.3966 0.61956,-0.23849 0.66623,-0.22239 0.66623,0.22996 0,0.44968 -0.22971,0.50041 -0.75457,0.16664 z m -1.42552,-0.21556 c 0.19222,-0.0771 0.42187,-0.0676 0.51035,0.0211 0.0885,0.0888 -0.0688,0.1519 -0.34947,0.1403 -0.3102,-0.0128 -0.37329,-0.0761 -0.16088,-0.16139 z m 34.010776,-0.60043 c -0.28656,-0.46515 0.43716,-0.61789 0.87004,-0.18362 0.39704,0.3983 0.3858,0.43228 -0.14297,0.43228 -0.31563,0 -0.64281,-0.11189 -0.72707,-0.24866 z m 26.21626,-0.003 c 0,-0.15559 -0.23257,-0.28288 -0.51683,-0.28288 -0.87448,0 -0.85986,-0.46613 0.0244,-0.77535 0.46102,-0.16122 0.88025,-0.29314 0.93162,-0.29314 0.22316,0 0.0678,1.31991 -0.17287,1.46916 -0.14644,0.0908 -0.26626,0.0378 -0.26626,-0.11779 z m -75.532036,-1.87062 c 0,-0.67561 0.15715,-0.85712 1.05364,-1.21697 1.01335,-0.40675 1.10074,-0.39821 2.28549,0.2236 0.67752,0.35558 1.27221,0.84982 1.32154,1.09829 0.0782,0.39399 -0.14316,0.44324 -1.73076,0.38512 -1.00124,-0.0367 -2.07007,0.0168 -2.37518,0.11868 -0.47914,0.16007 -0.55473,0.0771 -0.55473,-0.60872 z m 7.33285,-0.19235 c -0.33137,-0.40297 -0.30958,-0.41455 0.23367,-0.12417 0.61959,0.33121 0.77216,0.56858 0.36543,0.56858 -0.12851,0 -0.39811,-0.19999 -0.5991,-0.44441 z m 43.592816,0.009 c -0.13522,-0.35353 -0.37795,-0.39822 -1.29327,-0.23818 -1.79117,0.31319 -2.93235,0.29799 -3.04775,-0.0406 -0.0588,-0.17231 0.16973,-0.35263 0.50768,-0.40068 0.33795,-0.0481 0.61446,-0.26769 0.61446,-0.48806 0,-0.29375 -0.44389,-0.44979 -1.66336,-0.58473 -0.91485,-0.10124 -1.75758,-0.24248 -1.87274,-0.31387 -0.51862,-0.32156 -2.87839,0.45215 -3.4239,1.1226 l -0.56951,0.69995 -2.62574,-0.45963 c -3.770826,-0.66007 -4.622766,-0.93641 -4.622766,-1.49948 0,-0.61602 1.75683,-1.03818 5.806296,-1.39521 1.65574,-0.14598 3.32545,-0.38557 3.71046,-0.53242 0.385,-0.14684 1.66638,-0.32956 2.84749,-0.40605 1.18113,-0.0764 2.96953,-0.39086 3.97424,-0.69861 1.52333,-0.46662 1.96874,-0.50806 2.68161,-0.24945 0.47017,0.17056 1.09738,0.3101 1.3938,0.3101 0.29641,0 0.75753,0.24232 1.02471,0.53849 0.47068,0.52176 0.4699,0.55054 -0.0253,0.92642 -0.48044,0.36469 -0.45856,0.38845 0.36491,0.39644 0.85158,0.008 2.80173,0.83061 3.09372,1.30458 0.0797,0.12938 -0.094,0.45216 -0.38604,0.71729 -0.50968,0.46272 -0.63731,0.46338 -3.18321,0.0163 -1.45874,-0.25613 -2.77465,-0.38979 -2.92427,-0.29703 -0.39453,0.24461 -0.33353,0.82186 0.12739,1.20561 0.21967,0.1829 0.3994,0.43802 0.3994,0.56695 0,0.413 -0.73573,0.25036 -0.90831,-0.20079 z m 23.22509,0.25272 c 0.19221,-0.0771 0.42188,-0.0676 0.51036,0.0211 0.0885,0.0887 -0.0688,0.15189 -0.34949,0.14029 -0.31019,-0.0128 -0.37328,-0.0761 -0.16087,-0.16138 z m 1.38128,-0.21821 c 0,-0.22038 0.11983,-0.40068 0.26627,-0.40068 0.14645,0 0.26627,0.1803 0.26627,0.40068 0,0.22038 -0.11982,0.40068 -0.26627,0.40068 -0.14644,0 -0.26627,-0.1803 -0.26627,-0.40068 z m -10.33427,-1.91863 c -0.27502,-0.11042 -0.25842,-0.24072 0.0783,-0.61392 0.39871,-0.44199 0.53513,-0.44653 2.03409,-0.0677 1.07584,0.27188 1.48987,0.48033 1.25309,0.63092 -0.38234,0.24317 -2.79558,0.27955 -3.36544,0.0507 z M 65.027624,192.6346 c -0.16897,-0.0694 -1.17552,-1.09086 -2.23678,-2.26993 -1.29976,-1.44407 -1.67156,-1.98451 -1.1391,-1.65581 0.85261,0.52633 4.29372,4.10784 3.91335,4.073 -0.12663,-0.0116 -0.36849,-0.0778 -0.53747,-0.14726 z m 74.996076,-7.4288 c 0,-0.59485 0.41699,-0.71325 0.46072,-0.13082 0.0213,0.28365 -0.0737,0.51573 -0.211,0.51573 -0.13734,0 -0.24972,-0.17321 -0.24972,-0.38491 z m -1.06508,-0.14933 c 0,-0.14691 0.17973,-0.26712 0.39941,-0.26712 0.21967,0 0.3994,0.12021 0.3994,0.26712 0,0.14692 -0.17973,0.26713 -0.3994,0.26713 -0.21968,0 -0.39941,-0.12021 -0.39941,-0.26713 z m -95.324806,-39.7953 c -0.3513,-0.22286 -0.34636,-0.30659 0.0411,-0.69532 0.51585,-0.51764 1.02406,-0.30008 1.02406,0.4384 0,0.55929 -0.42632,0.66214 -1.06508,0.25692 z m 2.92898,0.0455 c 0,-0.11884 0.15788,-0.43268 0.35085,-0.69742 0.33463,-0.45909 0.37251,-0.45966 0.81849,-0.0122 0.37504,0.37623 0.39783,0.51351 0.11512,0.69332 -0.45173,0.28732 -1.28446,0.29791 -1.28446,0.0164 z m -5.19373,-1.48825 c -0.56243,-0.41257 -0.32361,-0.96688 0.41657,-0.96688 0.33408,0 0.51683,0.18333 0.51683,0.51847 0,0.70184 -0.35525,0.8725 -0.9334,0.44841 z m 7.85643,-0.29909 c 0,-0.46948 0.14497,-0.66779 0.48817,-0.66779 0.74518,0 0.89081,0.30581 0.40309,0.84645 -0.60492,0.67056 -0.89126,0.61317 -0.89126,-0.17866 z m -4.65973,-0.17639 c -1.022,-0.56364 -2.50715,-2.18497 -2.66597,-2.91042 -0.0881,-0.40206 -0.3929,-0.94244 -0.67751,-1.20081 -0.59843,-0.54331 -0.68406,-1.78556 -0.15353,-2.22727 0.20016,-0.16664 0.64949,-0.27151 0.99852,-0.23304 0.67402,0.0743 0.72417,-0.12397 0.37085,-1.466 -0.16427,-0.62399 -0.11194,-0.73459 0.34759,-0.73459 0.29754,0 0.88991,0.29455 1.31637,0.65455 0.72333,0.61057 0.80517,0.62467 1.21865,0.20987 0.41348,-0.4148 0.47301,-0.4148 0.88649,0 0.41348,0.4148 0.49532,0.4007 1.21865,-0.20987 0.42647,-0.36 1.01884,-0.65455 1.31637,-0.65455 0.45953,0 0.51186,0.1106 0.34759,0.73459 -0.34935,1.32698 -0.29567,1.53492 0.40193,1.55702 1.24649,0.0395 1.33136,0.10363 1.33136,1.00599 0,0.55428 -0.2022,1.07708 -0.53255,1.377 -0.29289,0.26592 -0.53253,0.70491 -0.53253,0.97555 0,0.60983 -1.69956,2.53161 -2.69605,3.04854 -0.87393,0.45338 -1.76007,0.47945 -2.49623,0.0734 z m 3.03453,-1.43562 c 0.88156,-1.00726 1.19321,-2.0978 0.41411,-1.44915 -0.57878,0.48187 -4.36494,0.44372 -4.67491,-0.0471 -0.18114,-0.28682 -0.23093,-0.26686 -0.23414,0.0939 -0.002,0.25198 0.3678,0.88306 0.82232,1.40238 0.6732,0.76918 1.0136,0.94422 1.83631,0.94422 0.8227,0 1.1631,-0.17504 1.83631,-0.94422 z m -3.17174,-3.26293 c -0.002,-0.2571 -0.11774,-0.64777 -0.25665,-0.86814 -0.22152,-0.35145 -0.30819,-0.34489 -0.70529,0.0534 -0.37435,0.37544 -0.39342,0.52574 -0.11015,0.86814 0.46005,0.5561 1.07713,0.52538 1.07209,-0.0534 z m 3.73186,0.0667 c 0.26543,-0.32083 0.26091,-0.48599 -0.0227,-0.82878 -0.32071,-0.38767 -0.3991,-0.37243 -0.82997,0.16138 -0.26171,0.32422 -0.40949,0.69717 -0.32841,0.82879 0.2252,0.36555 0.81141,0.28545 1.18108,-0.16139 z"
       id="path4522"
       inkscape:connector-curvature="0" />
  </g>
</svg>
